<svg xmlns="http://www.w3.org/2000/svg" xmlns:xlink="http://www.w3.org/1999/xlink" width="200" zoomAndPan="magnify" viewBox="0 0 150 149.999998" height="200" preserveAspectRatio="xMidYMid meet" version="1.0"><defs><g/><clipPath id="cf52ee5292"><path d="M 27.625 52.226562 L 68.875 52.226562 L 68.875 97.976562 L 27.625 97.976562 Z M 27.625 52.226562 " clip-rule="nonzero"/></clipPath><clipPath id="68d0c97ef5"><path d="M 0.519531 6 L 9 6 L 9 16 L 0.519531 16 Z M 0.519531 6 " clip-rule="nonzero"/></clipPath><clipPath id="cfbd4fcd38"><rect x="0" width="44" y="0" height="19"/></clipPath><clipPath id="d8cef0c381"><rect x="0" width="49" y="0" height="19"/></clipPath><clipPath id="89828ca9b9"><path d="M 0.519531 2 L 4 2 L 4 7 L 0.519531 7 Z M 0.519531 2 " clip-rule="nonzero"/></clipPath><clipPath id="bb160b4172"><path d="M 22 2 L 25.960938 2 L 25.960938 7 L 22 7 Z M 22 2 " clip-rule="nonzero"/></clipPath><clipPath id="629e97083e"><rect x="0" width="26" y="0" height="8"/></clipPath></defs><g clip-path="url(#cf52ee5292)"><path fill="#602f32" d="M 68.925781 88.265625 C 64.792969 94.015625 58.050781 97.765625 50.429688 97.765625 C 37.855469 97.765625 27.664062 87.574219 27.664062 75 C 27.664062 62.425781 37.855469 52.234375 50.429688 52.234375 C 52.816406 52.230469 55.148438 52.597656 57.421875 53.332031 C 59.695312 54.066406 61.800781 55.132812 63.734375 56.535156 C 56.800781 58.921875 52.273438 61.730469 48.835938 64.15625 L 37.085938 64.863281 C 37.085938 64.863281 36.398438 66.421875 39.820312 69.421875 C 42.492188 71.765625 45.367188 69.984375 45.105469 71.890625 C 44.515625 76.183594 41.730469 79.460938 39.933594 80.429688 C 39.933594 80.429688 38.261719 81.492188 37.292969 80.765625 C 37.292969 80.765625 36.347656 80.910156 36.507812 81.957031 C 36.722656 83.355469 38.378906 85.101562 38.90625 85.671875 C 40.929688 87.847656 52.800781 93.796875 68.894531 88.152344 C 68.90625 88.1875 68.914062 88.230469 68.925781 88.265625 Z M 47.59375 74.675781 C 47.59375 74.855469 47.625 75.027344 47.695312 75.195312 C 47.765625 75.363281 47.863281 75.511719 47.992188 75.636719 C 48.117188 75.765625 48.265625 75.863281 48.433594 75.933594 C 48.597656 76.003906 48.773438 76.039062 48.953125 76.039062 C 49.132812 76.039062 49.308594 76.003906 49.476562 75.933594 C 49.640625 75.863281 49.789062 75.765625 49.917969 75.636719 C 50.042969 75.511719 50.144531 75.363281 50.210938 75.195312 C 50.28125 75.03125 50.316406 74.855469 50.316406 74.675781 C 50.316406 74.496094 50.28125 74.320312 50.210938 74.152344 C 50.144531 73.988281 50.042969 73.839844 49.917969 73.710938 C 49.789062 73.585938 49.640625 73.484375 49.476562 73.417969 C 49.308594 73.347656 49.132812 73.3125 48.953125 73.3125 C 48.773438 73.3125 48.601562 73.347656 48.433594 73.417969 C 48.265625 73.484375 48.117188 73.585938 47.992188 73.710938 C 47.863281 73.839844 47.765625 73.988281 47.695312 74.152344 C 47.625 74.320312 47.59375 74.496094 47.59375 74.675781 Z M 47.59375 74.675781 " fill-opacity="1" fill-rule="nonzero"/></g><g transform="matrix(1, 0, 0, 1, 59, 53)"><g clip-path="url(#cfbd4fcd38)"><g clip-path="url(#68d0c97ef5)"><g fill="#000000" fill-opacity="1"><g transform="translate(0.600026, 15.679019)"><g><path d="M 7.828125 -9.53125 L 7.703125 -8.25 L 5.953125 -8.25 L 5.953125 0 L 2.140625 0 L 2.140625 -8.25 L 0.28125 -8.25 L 0.28125 -9.53125 Z M 7.828125 -9.53125 "/></g></g></g></g><g fill="#000000" fill-opacity="1"><g transform="translate(10.852132, 15.679019)"><g><path d="M 6.71875 -9.53125 L 6.71875 -8.25 L 4.46875 -8.25 L 4.46875 -5.546875 L 6.28125 -5.546875 L 6.28125 -4.25 L 4.46875 -4.25 L 4.46875 -1.28125 L 6.9375 -1.28125 L 6.8125 0 L 0.65625 0 L 0.65625 -9.53125 Z M 6.71875 -9.53125 "/></g></g></g><g fill="#000000" fill-opacity="1"><g transform="translate(19.746981, 15.679019)"><g><path d="M 9.375 -6.59375 C 9.375 -5.957031 9.234375 -5.40625 8.953125 -4.9375 C 8.679688 -4.476562 8.296875 -4.128906 7.796875 -3.890625 L 9.96875 0 L 6.140625 0 L 4.90625 -4.15625 C 4.863281 -4.269531 4.828125 -4.390625 4.796875 -4.515625 C 4.773438 -4.640625 4.765625 -4.757812 4.765625 -4.875 C 5.066406 -4.875 5.28125 -4.953125 5.40625 -5.109375 C 5.539062 -5.273438 5.617188 -5.46875 5.640625 -5.6875 C 5.660156 -5.90625 5.671875 -6.257812 5.671875 -6.75 C 5.671875 -7.300781 5.625 -7.726562 5.53125 -8.03125 C 5.445312 -8.34375 5.234375 -8.5 4.890625 -8.5 C 4.734375 -8.5 4.59375 -8.472656 4.46875 -8.421875 L 4.46875 0 L 0.65625 0 L 0.65625 -9.359375 C 2.175781 -9.523438 3.570312 -9.609375 4.84375 -9.609375 C 5.78125 -9.609375 6.578125 -9.53125 7.234375 -9.375 C 7.890625 -9.21875 8.410156 -8.921875 8.796875 -8.484375 C 9.179688 -8.046875 9.375 -7.414062 9.375 -6.59375 Z M 9.375 -6.59375 "/></g></g></g><g fill="#000000" fill-opacity="1"><g transform="translate(31.572927, 15.679019)"><g><path d="M 6.75 -9.53125 L 9.140625 0 L 5.21875 0 L 4.71875 -2.203125 L 2.375 -2.203125 L 1.875 0 L -0.15625 0 L 2.421875 -9.53125 Z M 2.65625 -3.5 L 4.421875 -3.5 L 3.515625 -7.421875 Z M 2.65625 -3.5 "/></g></g></g></g></g><g transform="matrix(1, 0, 0, 1, 59, 65)"><g clip-path="url(#d8cef0c381)"><g fill="#000000" fill-opacity="1"><g transform="translate(0.600026, 15.45126)"><g><path d="M 6.71875 -9.53125 L 6.71875 -8.25 L 4.46875 -8.25 L 4.46875 -5.34375 L 6.28125 -5.34375 L 6.28125 -4.046875 L 4.46875 -4.046875 L 4.46875 0 L 0.65625 0 L 0.65625 -9.53125 Z M 6.71875 -9.53125 "/></g></g></g><g fill="#000000" fill-opacity="1"><g transform="translate(9.321609, 15.45126)"><g><path d="M 6.75 -9.53125 L 9.140625 0 L 5.21875 0 L 4.71875 -2.203125 L 2.375 -2.203125 L 1.875 0 L -0.15625 0 L 2.421875 -9.53125 Z M 2.65625 -3.5 L 4.421875 -3.5 L 3.515625 -7.421875 Z M 2.65625 -3.5 "/></g></g></g><g fill="#000000" fill-opacity="1"><g transform="translate(20.656633, 15.45126)"><g><path d="M 9.375 -6.59375 C 9.375 -5.957031 9.234375 -5.40625 8.953125 -4.9375 C 8.679688 -4.476562 8.296875 -4.128906 7.796875 -3.890625 L 9.96875 0 L 6.140625 0 L 4.90625 -4.15625 C 4.863281 -4.269531 4.828125 -4.390625 4.796875 -4.515625 C 4.773438 -4.640625 4.765625 -4.757812 4.765625 -4.875 C 5.066406 -4.875 5.28125 -4.953125 5.40625 -5.109375 C 5.539062 -5.273438 5.617188 -5.46875 5.640625 -5.6875 C 5.660156 -5.90625 5.671875 -6.257812 5.671875 -6.75 C 5.671875 -7.300781 5.625 -7.726562 5.53125 -8.03125 C 5.445312 -8.34375 5.234375 -8.5 4.890625 -8.5 C 4.734375 -8.5 4.59375 -8.472656 4.46875 -8.421875 L 4.46875 0 L 0.65625 0 L 0.65625 -9.359375 C 2.175781 -9.523438 3.570312 -9.609375 4.84375 -9.609375 C 5.78125 -9.609375 6.578125 -9.53125 7.234375 -9.375 C 7.890625 -9.21875 8.410156 -8.921875 8.796875 -8.484375 C 9.179688 -8.046875 9.375 -7.414062 9.375 -6.59375 Z M 9.375 -6.59375 "/></g></g></g><g fill="#000000" fill-opacity="1"><g transform="translate(32.482579, 15.45126)"><g><path d="M 12.90625 -9.53125 L 12.90625 0 L 9.09375 0 L 9.09375 -7.09375 L 6.75 0 L 4.78125 0 L 2.421875 -7.078125 L 2.421875 0 L 0.65625 0 L 0.65625 -9.53125 L 5.375 -9.53125 L 6.75 -5.015625 L 8.140625 -9.53125 Z M 12.90625 -9.53125 "/></g></g></g></g></g><g transform="matrix(1, 0, 0, 1, 59, 80)"><g clip-path="url(#629e97083e)"><g clip-path="url(#89828ca9b9)"><g fill="#000000" fill-opacity="1"><g transform="translate(0.600026, 6.262323)"><g><path d="M 0.046875 0 L 0.734375 -3.5625 C 0.816406 -3.570312 0.875 -3.578125 0.90625 -3.578125 C 1.238281 -3.597656 1.5 -3.609375 1.6875 -3.609375 C 2.039062 -3.609375 2.320312 -3.582031 2.53125 -3.53125 C 2.75 -3.488281 2.914062 -3.398438 3.03125 -3.265625 C 3.15625 -3.128906 3.21875 -2.9375 3.21875 -2.6875 C 3.21875 -2.445312 3.164062 -2.234375 3.0625 -2.046875 C 2.96875 -1.867188 2.828125 -1.726562 2.640625 -1.625 C 2.460938 -1.53125 2.257812 -1.484375 2.03125 -1.484375 C 1.882812 -1.484375 1.753906 -1.503906 1.640625 -1.546875 C 1.535156 -1.585938 1.46875 -1.660156 1.4375 -1.765625 L 1.515625 -1.765625 C 1.535156 -1.765625 1.566406 -1.769531 1.609375 -1.78125 C 1.847656 -1.800781 2.035156 -1.890625 2.171875 -2.046875 C 2.304688 -2.210938 2.375 -2.425781 2.375 -2.6875 C 2.375 -2.882812 2.332031 -3.023438 2.25 -3.109375 C 2.164062 -3.203125 2.035156 -3.25 1.859375 -3.25 C 1.765625 -3.25 1.664062 -3.242188 1.5625 -3.234375 L 0.953125 0 Z M 0.046875 0 "/></g></g></g></g><g fill="#000000" fill-opacity="1"><g transform="translate(4.463382, 6.262323)"><g><path d="M 1.640625 -3.5625 L 0.953125 0 L 0.046875 0 L 0.734375 -3.5625 Z M 1.640625 -3.5625 "/></g></g></g><g fill="#000000" fill-opacity="1"><g transform="translate(6.965522, 6.262323)"><g><path d="M 3.078125 -1.796875 C 2.960938 -1.546875 2.875 -1.257812 2.8125 -0.9375 C 2.757812 -0.613281 2.726562 -0.296875 2.71875 0.015625 C 2.65625 0.078125 2.566406 0.109375 2.453125 0.109375 C 2.328125 0.109375 2.226562 0.078125 2.15625 0.015625 C 2.082031 -0.0351562 2.039062 -0.109375 2.03125 -0.203125 C 1.925781 -0.109375 1.796875 -0.0351562 1.640625 0.015625 C 1.492188 0.078125 1.34375 0.109375 1.1875 0.109375 C 0.832031 0.109375 0.566406 -0.0078125 0.390625 -0.25 C 0.210938 -0.5 0.125 -0.84375 0.125 -1.28125 C 0.125 -1.695312 0.203125 -2.085938 0.359375 -2.453125 C 0.515625 -2.816406 0.742188 -3.109375 1.046875 -3.328125 C 1.359375 -3.554688 1.726562 -3.671875 2.15625 -3.671875 C 2.4375 -3.671875 2.671875 -3.613281 2.859375 -3.5 C 3.046875 -3.382812 3.140625 -3.21875 3.140625 -3 C 3.140625 -2.8125 3.082031 -2.660156 2.96875 -2.546875 C 2.851562 -2.441406 2.710938 -2.390625 2.546875 -2.390625 C 2.429688 -2.390625 2.34375 -2.410156 2.28125 -2.453125 C 2.320312 -2.578125 2.34375 -2.710938 2.34375 -2.859375 C 2.34375 -2.972656 2.316406 -3.070312 2.265625 -3.15625 C 2.210938 -3.25 2.128906 -3.296875 2.015625 -3.296875 C 1.816406 -3.296875 1.644531 -3.1875 1.5 -2.96875 C 1.351562 -2.757812 1.238281 -2.5 1.15625 -2.1875 C 1.082031 -1.882812 1.046875 -1.597656 1.046875 -1.328125 C 1.046875 -0.753906 1.234375 -0.46875 1.609375 -0.46875 C 1.691406 -0.46875 1.769531 -0.476562 1.84375 -0.5 C 1.914062 -0.519531 1.972656 -0.550781 2.015625 -0.59375 L 2.1875 -1.703125 Z M 3.078125 -1.796875 "/></g></g></g><g fill="#000000" fill-opacity="1"><g transform="translate(10.931508, 6.262323)"><g><path d="M 3.078125 -1.796875 C 2.960938 -1.546875 2.875 -1.257812 2.8125 -0.9375 C 2.757812 -0.613281 2.726562 -0.296875 2.71875 0.015625 C 2.65625 0.078125 2.566406 0.109375 2.453125 0.109375 C 2.328125 0.109375 2.226562 0.078125 2.15625 0.015625 C 2.082031 -0.0351562 2.039062 -0.109375 2.03125 -0.203125 C 1.925781 -0.109375 1.796875 -0.0351562 1.640625 0.015625 C 1.492188 0.078125 1.34375 0.109375 1.1875 0.109375 C 0.832031 0.109375 0.566406 -0.0078125 0.390625 -0.25 C 0.210938 -0.5 0.125 -0.84375 0.125 -1.28125 C 0.125 -1.695312 0.203125 -2.085938 0.359375 -2.453125 C 0.515625 -2.816406 0.742188 -3.109375 1.046875 -3.328125 C 1.359375 -3.554688 1.726562 -3.671875 2.15625 -3.671875 C 2.4375 -3.671875 2.671875 -3.613281 2.859375 -3.5 C 3.046875 -3.382812 3.140625 -3.21875 3.140625 -3 C 3.140625 -2.8125 3.082031 -2.660156 2.96875 -2.546875 C 2.851562 -2.441406 2.710938 -2.390625 2.546875 -2.390625 C 2.429688 -2.390625 2.34375 -2.410156 2.28125 -2.453125 C 2.320312 -2.578125 2.34375 -2.710938 2.34375 -2.859375 C 2.34375 -2.972656 2.316406 -3.070312 2.265625 -3.15625 C 2.210938 -3.25 2.128906 -3.296875 2.015625 -3.296875 C 1.816406 -3.296875 1.644531 -3.1875 1.5 -2.96875 C 1.351562 -2.757812 1.238281 -2.5 1.15625 -2.1875 C 1.082031 -1.882812 1.046875 -1.597656 1.046875 -1.328125 C 1.046875 -0.753906 1.234375 -0.46875 1.609375 -0.46875 C 1.691406 -0.46875 1.769531 -0.476562 1.84375 -0.5 C 1.914062 -0.519531 1.972656 -0.550781 2.015625 -0.59375 L 2.1875 -1.703125 Z M 3.078125 -1.796875 "/></g></g></g><g fill="#000000" fill-opacity="1"><g transform="translate(14.897493, 6.262323)"><g><path d="M 2.78125 -3.5625 C 2.78125 -3.375 2.726562 -3.226562 2.625 -3.125 C 2.519531 -3.019531 2.367188 -2.96875 2.171875 -2.96875 C 1.984375 -2.96875 1.769531 -3.019531 1.53125 -3.125 L 1.34375 -2.0625 L 2.3125 -2.0625 C 2.3125 -1.894531 2.265625 -1.765625 2.171875 -1.671875 C 2.078125 -1.585938 1.945312 -1.546875 1.78125 -1.546875 C 1.675781 -1.546875 1.578125 -1.554688 1.484375 -1.578125 C 1.390625 -1.609375 1.316406 -1.640625 1.265625 -1.671875 L 1.0625 -0.5625 L 1.625 -0.5625 C 1.851562 -0.5625 2.015625 -0.582031 2.109375 -0.625 C 2.128906 -0.59375 2.144531 -0.550781 2.15625 -0.5 C 2.175781 -0.445312 2.1875 -0.398438 2.1875 -0.359375 C 2.1875 -0.222656 2.128906 -0.128906 2.015625 -0.078125 C 1.898438 -0.0234375 1.753906 0 1.578125 0 L 0.046875 0 L 0.734375 -3.5625 Z M 2.78125 -3.5625 "/></g></g></g><g fill="#000000" fill-opacity="1"><g transform="translate(18.242288, 6.262323)"><g><path d="M 0.9375 -3.578125 C 1.007812 -3.578125 1.140625 -3.582031 1.328125 -3.59375 C 1.515625 -3.601562 1.675781 -3.609375 1.8125 -3.609375 C 2.101562 -3.609375 2.347656 -3.582031 2.546875 -3.53125 C 2.742188 -3.488281 2.898438 -3.398438 3.015625 -3.265625 C 3.128906 -3.140625 3.1875 -2.953125 3.1875 -2.703125 C 3.1875 -2.398438 3.101562 -2.144531 2.9375 -1.9375 C 2.78125 -1.726562 2.566406 -1.597656 2.296875 -1.546875 C 2.429688 -1.179688 2.570312 -0.890625 2.71875 -0.671875 C 2.863281 -0.453125 3.003906 -0.3125 3.140625 -0.25 C 3.097656 -0.125 3.03125 -0.0351562 2.9375 0.015625 C 2.84375 0.078125 2.734375 0.109375 2.609375 0.109375 C 2.410156 0.109375 2.242188 0.0390625 2.109375 -0.09375 C 1.972656 -0.238281 1.859375 -0.4375 1.765625 -0.6875 C 1.671875 -0.945312 1.554688 -1.320312 1.421875 -1.8125 C 1.453125 -1.800781 1.484375 -1.796875 1.515625 -1.796875 C 1.773438 -1.796875 1.972656 -1.867188 2.109375 -2.015625 C 2.253906 -2.171875 2.328125 -2.382812 2.328125 -2.65625 C 2.328125 -2.851562 2.285156 -3 2.203125 -3.09375 C 2.128906 -3.195312 2.003906 -3.25 1.828125 -3.25 C 1.742188 -3.25 1.65625 -3.242188 1.5625 -3.234375 L 0.953125 0 L 0.046875 0 L 0.734375 -3.5625 Z M 0.9375 -3.578125 "/></g></g></g><g clip-path="url(#bb160b4172)"><g fill="#000000" fill-opacity="1"><g transform="translate(22.310903, 6.262323)"><g><path d="M 1.40625 -2.015625 C 1.632812 -2.597656 1.847656 -3.015625 2.046875 -3.265625 C 2.242188 -3.515625 2.457031 -3.640625 2.6875 -3.640625 C 2.90625 -3.640625 3.035156 -3.550781 3.078125 -3.375 C 2.816406 -3.238281 2.554688 -3.003906 2.296875 -2.671875 C 2.035156 -2.347656 1.816406 -1.96875 1.640625 -1.53125 L 1.34375 0 L 0.4375 0 L 0.765625 -1.671875 C 0.671875 -2.191406 0.566406 -2.578125 0.453125 -2.828125 C 0.335938 -3.085938 0.203125 -3.257812 0.046875 -3.34375 C 0.0976562 -3.4375 0.171875 -3.507812 0.265625 -3.5625 C 0.367188 -3.613281 0.484375 -3.640625 0.609375 -3.640625 C 0.773438 -3.640625 0.90625 -3.597656 1 -3.515625 C 1.101562 -3.429688 1.179688 -3.296875 1.234375 -3.109375 C 1.296875 -2.929688 1.34375 -2.6875 1.375 -2.375 Z M 1.40625 -2.015625 "/></g></g></g></g></g></g></svg>